<svg width="962" height="932" viewBox="0 0 962 932" fill="none" xmlns="http://www.w3.org/2000/svg">
<g filter="url(#filter0_d_348_653)">
<rect x="161" y="84" width="597" height="545" rx="85" fill="black"/>
</g>
<g filter="url(#filter1_i_348_653)">
<ellipse cx="107.929" cy="107.058" rx="107.929" ry="107.058" transform="matrix(0.964092 -0.265567 0.252004 0.967726 226.624 281.881)" fill="url(#paint0_linear_348_653)"/>
</g>
<g filter="url(#filter2_di_348_653)">
<ellipse cx="107.058" cy="107.929" rx="107.058" ry="107.929" transform="matrix(-0.967726 -0.252004 -0.265567 0.964093 692.608 278.103)" fill="url(#paint1_linear_348_653)"/>
</g>
<g filter="url(#filter3_di_348_653)">
<ellipse cx="107.058" cy="107.929" rx="107.058" ry="107.929" transform="matrix(-0.252004 -0.967726 0.964093 -0.265567 381.103 589.608)" fill="url(#paint2_linear_348_653)"/>
</g>
<g filter="url(#filter4_di_348_653)">
<ellipse cx="107.929" cy="107.058" rx="107.929" ry="107.058" transform="matrix(-0.265567 0.964093 0.967726 0.252004 384.881 123.624)" fill="url(#paint3_linear_348_653)"/>
</g>
<g filter="url(#filter5_d_348_653)">
<path d="M427.217 305.768H490.784V483.969C490.784 491.978 484.292 498.469 476.284 498.469H441.717C433.709 498.469 427.217 491.978 427.217 483.969V305.768Z" fill="white" stroke="white"/>
<rect x="362.65" y="250.425" width="192.701" height="54.3432" rx="14.5" fill="white" stroke="white"/>
<path d="M488.3 318.442C488.3 307.373 493.373 302.3 504.442 302.3" stroke="white" stroke-width="6"/>
<path d="M429.7 318.442C429.7 307.373 424.627 302.3 413.558 302.3" stroke="white" stroke-width="6"/>
</g>
<path d="M55.3125 694.125V759H30.5V694.125H12.8125V673.688H73V694.125H55.3125ZM99.5 759H75.625V695.438H96.375V708.562C98.75 699.021 104.271 694.25 112.938 694.25C113.812 694.25 115.021 694.333 116.562 694.5V716.688C114.812 716.271 113.25 716.062 111.875 716.062C103.625 716.062 99.5 720.667 99.5 729.875V759ZM186.312 695.438V759H163.25V748.562C159.875 756.396 153.292 760.312 143.5 760.312C137.458 760.312 132.771 758.646 129.438 755.312C126.146 751.938 124.5 747.125 124.5 740.875V695.438H149.438V735.438C149.438 737.938 149.771 739.708 150.438 740.75C151.146 741.75 152.5 742.25 154.5 742.25C156.625 742.25 158.354 741.5 159.688 740C161.021 738.458 161.688 736.312 161.688 733.562V695.438H186.312ZM193.875 741L213.562 738.312C214.688 742.896 219.146 745.188 226.938 745.188C233.396 745.188 236.625 743.938 236.625 741.438C236.625 740.354 236 739.521 234.75 738.938C233.5 738.312 230.542 737.688 225.875 737.062C212.958 735.271 204.896 732.479 201.688 728.688C198.479 724.854 196.875 720.604 196.875 715.938C196.875 709.438 199.583 704.188 205 700.188C210.417 696.146 217.521 694.125 226.312 694.125C241.729 694.125 251.562 699.688 255.812 710.812L236.938 714.375C235.188 710.625 231.5 708.75 225.875 708.75C223.208 708.75 221.208 709.125 219.875 709.875C218.583 710.583 217.938 711.292 217.938 712C217.938 714.083 219.938 715.354 223.938 715.812C234.354 716.979 241.417 718.167 245.125 719.375C248.833 720.583 252 722.792 254.625 726C257.25 729.208 258.562 733.083 258.562 737.625C258.562 744.583 255.646 750.104 249.812 754.188C244.021 758.271 236.021 760.312 225.812 760.312C208.604 760.312 197.958 753.875 193.875 741ZM307.25 695.438V711.625H294.562V735.062C294.562 738.271 295.167 740.188 296.375 740.812C297.583 741.396 298.833 741.688 300.125 741.688C302.125 741.688 304.5 741.333 307.25 740.625V758.375C302.333 759.333 297.5 759.812 292.75 759.812C285.083 759.812 279.438 758.167 275.812 754.875C272.229 751.583 270.438 746.333 270.438 739.125L270.5 731.688V711.625H261V695.438H270.5L270.875 674.75L294.562 674.375V695.438H307.25ZM357.625 736.188L380.875 737.75C379.5 744 375.979 749.333 370.312 753.75C364.688 758.125 357.062 760.312 347.438 760.312C336.729 760.312 328.188 757.229 321.812 751.062C315.438 744.854 312.25 737.167 312.25 728C312.25 718.5 315.396 710.479 321.688 703.938C327.979 697.396 336.375 694.125 346.875 694.125C357.042 694.125 365.25 697.208 371.5 703.375C377.792 709.542 380.938 717.938 380.938 728.562C380.938 729.438 380.917 730.646 380.875 732.188H338.312C338.396 736.188 339.104 739.167 340.438 741.125C341.771 743.042 344.312 744 348.062 744C353.479 744 356.667 741.396 357.625 736.188ZM356 719.688C355.958 715.396 355.083 712.521 353.375 711.062C351.708 709.562 349.625 708.812 347.125 708.812C341.208 708.812 338.25 712.438 338.25 719.688H356ZM452.812 759H429.438V750.562C425.979 757.062 420.271 760.312 412.312 760.312C404.979 760.312 399.021 757.458 394.438 751.75C389.896 746 387.625 737.667 387.625 726.75C387.625 716.542 389.917 708.438 394.5 702.438C399.083 696.438 405.146 693.438 412.688 693.438C418.979 693.438 424.167 695.833 428.25 700.625V673.688H452.812V759ZM428.25 718.125C428.25 712.417 425.896 709.562 421.188 709.562C417.896 709.562 415.729 711.375 414.688 715C413.688 718.625 413.188 723.062 413.188 728.312C413.188 738.604 415.812 743.75 421.062 743.75C423.062 743.75 424.75 742.938 426.125 741.312C427.542 739.688 428.25 737.208 428.25 733.875V718.125ZM490.062 734.312L514.375 729.938C516.417 736.812 521.667 740.25 530.125 740.25C536.708 740.25 540 738.5 540 735C540 733.167 539.229 731.75 537.688 730.75C536.188 729.708 533.479 728.792 529.562 728C514.604 725.125 505 721.375 500.75 716.75C496.5 712.125 494.375 706.688 494.375 700.438C494.375 692.396 497.417 685.708 503.5 680.375C509.625 675.042 518.417 672.375 529.875 672.375C547.25 672.375 558.729 679.354 564.312 693.312L542.625 699.875C540.375 694.167 535.812 691.312 528.938 691.312C523.229 691.312 520.375 693.083 520.375 696.625C520.375 698.208 521.021 699.438 522.312 700.312C523.604 701.188 526.104 702.021 529.812 702.812C540.021 704.979 547.271 706.896 551.562 708.562C555.854 710.229 559.438 713.083 562.312 717.125C565.188 721.125 566.625 725.854 566.625 731.312C566.625 739.938 563.125 746.938 556.125 752.312C549.125 757.646 539.938 760.312 528.562 760.312C507.771 760.312 494.938 751.646 490.062 734.312ZM615 695.438V711.625H602.312V735.062C602.312 738.271 602.917 740.188 604.125 740.812C605.333 741.396 606.583 741.688 607.875 741.688C609.875 741.688 612.25 741.333 615 740.625V758.375C610.083 759.333 605.25 759.812 600.5 759.812C592.833 759.812 587.188 758.167 583.562 754.875C579.979 751.583 578.188 746.333 578.188 739.125L578.25 731.688V711.625H568.75V695.438H578.25L578.625 674.75L602.312 674.375V695.438H615ZM685.188 695.438V759H662.125V748.562C658.75 756.396 652.167 760.312 642.375 760.312C636.333 760.312 631.646 758.646 628.312 755.312C625.021 751.938 623.375 747.125 623.375 740.875V695.438H648.312V735.438C648.312 737.938 648.646 739.708 649.312 740.75C650.021 741.75 651.375 742.25 653.375 742.25C655.5 742.25 657.229 741.5 658.562 740C659.896 738.458 660.562 736.312 660.562 733.562V695.438H685.188ZM760.438 759H737.062V750.562C733.604 757.062 727.896 760.312 719.938 760.312C712.604 760.312 706.646 757.458 702.062 751.75C697.521 746 695.25 737.667 695.25 726.75C695.25 716.542 697.542 708.438 702.125 702.438C706.708 696.438 712.771 693.438 720.312 693.438C726.604 693.438 731.792 695.833 735.875 700.625V673.688H760.438V759ZM735.875 718.125C735.875 712.417 733.521 709.562 728.812 709.562C725.521 709.562 723.354 711.375 722.312 715C721.312 718.625 720.812 723.062 720.812 728.312C720.812 738.604 723.438 743.75 728.688 743.75C730.688 743.75 732.375 742.938 733.75 741.312C735.167 739.688 735.875 737.208 735.875 733.875V718.125ZM798.562 671V690.75H773.625V671H798.562ZM798.562 695.438V759H773.625V695.438H798.562ZM842.812 760.312C832.271 760.312 823.896 757.042 817.688 750.5C811.479 743.917 808.375 736.208 808.375 727.375C808.375 717.875 811.604 709.958 818.062 703.625C824.562 697.292 833 694.125 843.375 694.125C853.833 694.125 862.229 697.25 868.562 703.5C874.938 709.75 878.125 717.583 878.125 727C878.125 736.5 874.896 744.438 868.438 750.812C862.021 757.146 853.479 760.312 842.812 760.312ZM843.188 745.188C847.062 745.188 849.417 743.188 850.25 739.188C851.125 735.146 851.562 730.938 851.562 726.562C851.562 720.604 850.958 716.312 849.75 713.688C848.542 711.062 846.375 709.75 843.25 709.75C840.375 709.75 838.271 711.104 836.938 713.812C835.604 716.521 834.938 720.979 834.938 727.188C834.938 734.479 835.625 739.312 837 741.688C838.375 744.021 840.438 745.188 843.188 745.188ZM882.25 741L901.938 738.312C903.062 742.896 907.521 745.188 915.312 745.188C921.771 745.188 925 743.938 925 741.438C925 740.354 924.375 739.521 923.125 738.938C921.875 738.312 918.917 737.688 914.25 737.062C901.333 735.271 893.271 732.479 890.062 728.688C886.854 724.854 885.25 720.604 885.25 715.938C885.25 709.438 887.958 704.188 893.375 700.188C898.792 696.146 905.896 694.125 914.688 694.125C930.104 694.125 939.938 699.688 944.188 710.812L925.312 714.375C923.562 710.625 919.875 708.75 914.25 708.75C911.583 708.75 909.583 709.125 908.25 709.875C906.958 710.583 906.312 711.292 906.312 712C906.312 714.083 908.312 715.354 912.312 715.812C922.729 716.979 929.792 718.167 933.5 719.375C937.208 720.583 940.375 722.792 943 726C945.625 729.208 946.938 733.083 946.938 737.625C946.938 744.583 944.021 750.104 938.188 754.188C932.396 758.271 924.396 760.312 914.188 760.312C896.979 760.312 886.333 753.875 882.25 741Z" fill="white"/>
<path d="M361.562 818.688V904H335.375V870.812H315.375V904H289.188V818.688H315.375V850.062H335.375V818.688H361.562ZM417.562 881.188L440.812 882.75C439.438 889 435.917 894.333 430.25 898.75C424.625 903.125 417 905.312 407.375 905.312C396.667 905.312 388.125 902.229 381.75 896.062C375.375 889.854 372.188 882.167 372.188 873C372.188 863.5 375.333 855.479 381.625 848.938C387.917 842.396 396.312 839.125 406.812 839.125C416.979 839.125 425.188 842.208 431.438 848.375C437.729 854.542 440.875 862.938 440.875 873.562C440.875 874.438 440.854 875.646 440.812 877.188H398.25C398.333 881.188 399.042 884.167 400.375 886.125C401.708 888.042 404.25 889 408 889C413.417 889 416.604 886.396 417.562 881.188ZM415.938 864.688C415.896 860.396 415.021 857.521 413.312 856.062C411.646 854.562 409.562 853.812 407.062 853.812C401.146 853.812 398.188 857.438 398.188 864.688H415.938ZM514.75 904H491C490.417 901.292 490.125 898.333 490.125 895.125C485.625 901.917 478.812 905.312 469.688 905.312C462.188 905.312 456.562 903.396 452.812 899.562C449.104 895.729 447.25 891.333 447.25 886.375C447.25 879.667 450.292 874.25 456.375 870.125C462.5 865.958 473.333 863.458 488.875 862.625V861.188C488.875 858.396 488.229 856.542 486.938 855.625C485.688 854.708 483.833 854.25 481.375 854.25C475.625 854.25 472.417 856.562 471.75 861.188L449 859.062C452.25 845.771 463.312 839.125 482.188 839.125C487.312 839.125 492.021 839.646 496.312 840.688C500.604 841.688 504 843.271 506.5 845.438C509 847.604 510.667 849.896 511.5 852.312C512.375 854.729 512.812 859.375 512.812 866.25V891.625C512.812 896.458 513.458 900.583 514.75 904ZM488.875 874.25C478.25 875.375 472.938 878.771 472.938 884.438C472.938 888.271 475.042 890.188 479.25 890.188C481.917 890.188 484.188 889.396 486.062 887.812C487.938 886.229 488.875 882.729 488.875 877.312V874.25ZM550.375 818.688V904H525.812V818.688H550.375ZM602.812 840.438V856.625H590.125V880.062C590.125 883.271 590.729 885.188 591.938 885.812C593.146 886.396 594.396 886.688 595.688 886.688C597.688 886.688 600.062 886.333 602.812 885.625V903.375C597.896 904.333 593.062 904.812 588.312 904.812C580.646 904.812 575 903.167 571.375 899.875C567.792 896.583 566 891.333 566 884.125L566.062 876.688V856.625H556.562V840.438H566.062L566.438 819.75L590.125 819.375V840.438H602.812ZM673.625 904H648.75V865.75C648.75 862.25 648.354 859.854 647.562 858.562C646.812 857.229 645.333 856.562 643.125 856.562C641.417 856.562 639.917 857.083 638.625 858.125C637.375 859.125 636.646 860.167 636.438 861.25C636.229 862.333 636.125 864.604 636.125 868.062V904H611.188V818.688H636.125V847.938C640.625 842.062 646.5 839.125 653.75 839.125C657.417 839.125 660.625 839.771 663.375 841.062C666.167 842.312 668.312 843.938 669.812 845.938C671.312 847.938 672.312 849.875 672.812 851.75C673.354 853.625 673.625 857.25 673.625 862.625V904Z" fill="#60FF8A"/>
<defs>
<filter id="filter0_d_348_653" x="77.6" y="0.599998" width="763.8" height="711.8" filterUnits="userSpaceOnUse" color-interpolation-filters="sRGB">
<feFlood flood-opacity="0" result="BackgroundImageFix"/>
<feColorMatrix in="SourceAlpha" type="matrix" values="0 0 0 0 0 0 0 0 0 0 0 0 0 0 0 0 0 0 127 0" result="hardAlpha"/>
<feMorphology radius="1" operator="dilate" in="SourceAlpha" result="effect1_dropShadow_348_653"/>
<feOffset/>
<feGaussianBlur stdDeviation="41.2"/>
<feComposite in2="hardAlpha" operator="out"/>
<feColorMatrix type="matrix" values="0 0 0 0 1 0 0 0 0 1 0 0 0 0 1 0 0 0 0.91 0"/>
<feBlend mode="normal" in2="BackgroundImageFix" result="effect1_dropShadow_348_653"/>
<feBlend mode="normal" in="SourceGraphic" in2="effect1_dropShadow_348_653" result="shape"/>
</filter>
<filter id="filter1_i_348_653" x="250.136" y="249.3" width="215.041" height="219.043" filterUnits="userSpaceOnUse" color-interpolation-filters="sRGB">
<feFlood flood-opacity="0" result="BackgroundImageFix"/>
<feBlend mode="normal" in="SourceGraphic" in2="BackgroundImageFix" result="shape"/>
<feColorMatrix in="SourceAlpha" type="matrix" values="0 0 0 0 0 0 0 0 0 0 0 0 0 0 0 0 0 0 127 0" result="hardAlpha"/>
<feOffset dy="4"/>
<feGaussianBlur stdDeviation="2"/>
<feComposite in2="hardAlpha" operator="arithmetic" k2="-1" k3="1"/>
<feColorMatrix type="matrix" values="0 0 0 0 1 0 0 0 0 1 0 0 0 0 1 0 0 0 0.25 0"/>
<feBlend mode="normal" in2="shape" result="effect1_innerShadow_348_653"/>
</filter>
<filter id="filter2_di_348_653" x="450.822" y="241.658" width="223.043" height="225.041" filterUnits="userSpaceOnUse" color-interpolation-filters="sRGB">
<feFlood flood-opacity="0" result="BackgroundImageFix"/>
<feColorMatrix in="SourceAlpha" type="matrix" values="0 0 0 0 0 0 0 0 0 0 0 0 0 0 0 0 0 0 127 0" result="hardAlpha"/>
<feOffset dx="2" dy="-2"/>
<feGaussianBlur stdDeviation="2"/>
<feComposite in2="hardAlpha" operator="out"/>
<feColorMatrix type="matrix" values="0 0 0 0 0 0 0 0 0 0 0 0 0 0 0 0 0 0 0.25 0"/>
<feBlend mode="normal" in2="BackgroundImageFix" result="effect1_dropShadow_348_653"/>
<feBlend mode="normal" in="SourceGraphic" in2="effect1_dropShadow_348_653" result="shape"/>
<feColorMatrix in="SourceAlpha" type="matrix" values="0 0 0 0 0 0 0 0 0 0 0 0 0 0 0 0 0 0 127 0" result="hardAlpha"/>
<feOffset dy="4"/>
<feGaussianBlur stdDeviation="2"/>
<feComposite in2="hardAlpha" operator="arithmetic" k2="-1" k3="1"/>
<feColorMatrix type="matrix" values="0 0 0 0 1 0 0 0 0 1 0 0 0 0 1 0 0 0 0.25 0"/>
<feBlend mode="normal" in2="shape" result="effect2_innerShadow_348_653"/>
</filter>
<filter id="filter3_di_348_653" x="344.658" y="346.821" width="223.041" height="223.043" filterUnits="userSpaceOnUse" color-interpolation-filters="sRGB">
<feFlood flood-opacity="0" result="BackgroundImageFix"/>
<feColorMatrix in="SourceAlpha" type="matrix" values="0 0 0 0 0 0 0 0 0 0 0 0 0 0 0 0 0 0 127 0" result="hardAlpha"/>
<feOffset dx="-2" dy="1"/>
<feGaussianBlur stdDeviation="2"/>
<feComposite in2="hardAlpha" operator="out"/>
<feColorMatrix type="matrix" values="0 0 0 0 0 0 0 0 0 0 0 0 0 0 0 0 0 0 0.25 0"/>
<feBlend mode="normal" in2="BackgroundImageFix" result="effect1_dropShadow_348_653"/>
<feBlend mode="normal" in="SourceGraphic" in2="effect1_dropShadow_348_653" result="shape"/>
<feColorMatrix in="SourceAlpha" type="matrix" values="0 0 0 0 0 0 0 0 0 0 0 0 0 0 0 0 0 0 127 0" result="hardAlpha"/>
<feOffset dy="4"/>
<feGaussianBlur stdDeviation="2.45"/>
<feComposite in2="hardAlpha" operator="arithmetic" k2="-1" k3="1"/>
<feColorMatrix type="matrix" values="0 0 0 0 1 0 0 0 0 1 0 0 0 0 1 0 0 0 0.14 0"/>
<feBlend mode="normal" in2="shape" result="effect2_innerShadow_348_653"/>
</filter>
<filter id="filter4_di_348_653" x="350.3" y="141.136" width="223.043" height="225.041" filterUnits="userSpaceOnUse" color-interpolation-filters="sRGB">
<feFlood flood-opacity="0" result="BackgroundImageFix"/>
<feColorMatrix in="SourceAlpha" type="matrix" values="0 0 0 0 0 0 0 0 0 0 0 0 0 0 0 0 0 0 127 0" result="hardAlpha"/>
<feOffset dx="2" dy="-2"/>
<feGaussianBlur stdDeviation="2"/>
<feComposite in2="hardAlpha" operator="out"/>
<feColorMatrix type="matrix" values="0 0 0 0 0 0 0 0 0 0 0 0 0 0 0 0 0 0 0.25 0"/>
<feBlend mode="normal" in2="BackgroundImageFix" result="effect1_dropShadow_348_653"/>
<feBlend mode="normal" in="SourceGraphic" in2="effect1_dropShadow_348_653" result="shape"/>
<feColorMatrix in="SourceAlpha" type="matrix" values="0 0 0 0 0 0 0 0 0 0 0 0 0 0 0 0 0 0 127 0" result="hardAlpha"/>
<feOffset dy="4"/>
<feGaussianBlur stdDeviation="2"/>
<feComposite in2="hardAlpha" operator="arithmetic" k2="-1" k3="1"/>
<feColorMatrix type="matrix" values="0 0 0 0 1 0 0 0 0 1 0 0 0 0 1 0 0 0 0.25 0"/>
<feBlend mode="normal" in2="shape" result="effect2_innerShadow_348_653"/>
</filter>
<filter id="filter5_d_348_653" x="360.15" y="247.925" width="201.701" height="257.044" filterUnits="userSpaceOnUse" color-interpolation-filters="sRGB">
<feFlood flood-opacity="0" result="BackgroundImageFix"/>
<feColorMatrix in="SourceAlpha" type="matrix" values="0 0 0 0 0 0 0 0 0 0 0 0 0 0 0 0 0 0 127 0" result="hardAlpha"/>
<feOffset dx="2" dy="2"/>
<feGaussianBlur stdDeviation="2"/>
<feComposite in2="hardAlpha" operator="out"/>
<feColorMatrix type="matrix" values="0 0 0 0 0 0 0 0 0 0 0 0 0 0 0 0 0 0 0.25 0"/>
<feBlend mode="normal" in2="BackgroundImageFix" result="effect1_dropShadow_348_653"/>
<feBlend mode="normal" in="SourceGraphic" in2="effect1_dropShadow_348_653" result="shape"/>
</filter>
<linearGradient id="paint0_linear_348_653" x1="-101.022" y1="49.6748" x2="316.394" y2="166.181" gradientUnits="userSpaceOnUse">
<stop offset="0.243513" stop-color="#7DBE2C"/>
<stop offset="1" stop-color="#60FF8A"/>
</linearGradient>
<linearGradient id="paint1_linear_348_653" x1="-100.206" y1="50.0792" x2="314.797" y2="164.049" gradientUnits="userSpaceOnUse">
<stop offset="0.243513" stop-color="#7DBE2C"/>
<stop offset="1" stop-color="#60FF8A"/>
</linearGradient>
<linearGradient id="paint2_linear_348_653" x1="-100.206" y1="50.0792" x2="314.797" y2="164.049" gradientUnits="userSpaceOnUse">
<stop offset="0.243513" stop-color="#7DBE2C"/>
<stop offset="1" stop-color="#60FF8A"/>
</linearGradient>
<linearGradient id="paint3_linear_348_653" x1="-101.022" y1="49.6748" x2="316.394" y2="166.181" gradientUnits="userSpaceOnUse">
<stop offset="0.243513" stop-color="#7DBE2C"/>
<stop offset="1" stop-color="#60FF8A"/>
</linearGradient>
</defs>
</svg>
