<svg width="962" height="885" viewBox="0 0 962 885" fill="none" xmlns="http://www.w3.org/2000/svg">
<g filter="url(#filter0_d_348_653)">
<rect x="161" y="37" width="597" height="545" rx="85" fill="black"/>
<rect x="163" y="39" width="593" height="541" rx="83" stroke="white" stroke-opacity="0.3" stroke-width="4"/>
</g>
<g filter="url(#filter1_i_348_653)">
<ellipse cx="107.929" cy="107.058" rx="107.929" ry="107.058" transform="matrix(0.964092 -0.265567 0.252004 0.967726 226.624 234.881)" fill="url(#paint0_linear_348_653)"/>
</g>
<g filter="url(#filter2_di_348_653)">
<ellipse cx="107.058" cy="107.929" rx="107.058" ry="107.929" transform="matrix(-0.967726 -0.252004 -0.265567 0.964093 692.608 231.103)" fill="url(#paint1_linear_348_653)"/>
</g>
<g filter="url(#filter3_di_348_653)">
<ellipse cx="107.058" cy="107.929" rx="107.058" ry="107.929" transform="matrix(-0.252004 -0.967726 0.964093 -0.265567 381.103 542.608)" fill="url(#paint2_linear_348_653)"/>
</g>
<g filter="url(#filter4_di_348_653)">
<ellipse cx="107.929" cy="107.058" rx="107.929" ry="107.058" transform="matrix(-0.265567 0.964093 0.967726 0.252004 384.881 76.6239)" fill="url(#paint3_linear_348_653)"/>
</g>
<g filter="url(#filter5_d_348_653)">
<path d="M427.217 258.768H490.784V436.969C490.784 444.978 484.292 451.469 476.284 451.469H441.717C433.709 451.469 427.217 444.978 427.217 436.969V258.768Z" fill="white" stroke="white"/>
<rect x="362.65" y="203.425" width="192.701" height="54.3432" rx="14.5" fill="white" stroke="white"/>
<path d="M488.3 271.442C488.3 260.373 493.373 255.3 504.442 255.3" stroke="white" stroke-width="6"/>
<path d="M429.7 271.442C429.7 260.373 424.627 255.3 413.558 255.3" stroke="white" stroke-width="6"/>
</g>
<path d="M55.3125 647.125V712H30.5V647.125H12.8125V626.688H73V647.125H55.3125ZM99.5 712H75.625V648.438H96.375V661.562C98.75 652.021 104.271 647.25 112.938 647.25C113.812 647.25 115.021 647.333 116.562 647.5V669.688C114.812 669.271 113.25 669.062 111.875 669.062C103.625 669.062 99.5 673.667 99.5 682.875V712ZM186.312 648.438V712H163.25V701.562C159.875 709.396 153.292 713.312 143.5 713.312C137.458 713.312 132.771 711.646 129.438 708.312C126.146 704.938 124.5 700.125 124.5 693.875V648.438H149.438V688.438C149.438 690.938 149.771 692.708 150.438 693.75C151.146 694.75 152.5 695.25 154.5 695.25C156.625 695.25 158.354 694.5 159.688 693C161.021 691.458 161.688 689.312 161.688 686.562V648.438H186.312ZM193.875 694L213.562 691.312C214.688 695.896 219.146 698.188 226.938 698.188C233.396 698.188 236.625 696.938 236.625 694.438C236.625 693.354 236 692.521 234.75 691.938C233.5 691.312 230.542 690.688 225.875 690.062C212.958 688.271 204.896 685.479 201.688 681.688C198.479 677.854 196.875 673.604 196.875 668.938C196.875 662.438 199.583 657.188 205 653.188C210.417 649.146 217.521 647.125 226.312 647.125C241.729 647.125 251.562 652.688 255.812 663.812L236.938 667.375C235.188 663.625 231.5 661.75 225.875 661.75C223.208 661.75 221.208 662.125 219.875 662.875C218.583 663.583 217.938 664.292 217.938 665C217.938 667.083 219.938 668.354 223.938 668.812C234.354 669.979 241.417 671.167 245.125 672.375C248.833 673.583 252 675.792 254.625 679C257.25 682.208 258.562 686.083 258.562 690.625C258.562 697.583 255.646 703.104 249.812 707.188C244.021 711.271 236.021 713.312 225.812 713.312C208.604 713.312 197.958 706.875 193.875 694ZM307.25 648.438V664.625H294.562V688.062C294.562 691.271 295.167 693.188 296.375 693.812C297.583 694.396 298.833 694.688 300.125 694.688C302.125 694.688 304.5 694.333 307.25 693.625V711.375C302.333 712.333 297.5 712.812 292.75 712.812C285.083 712.812 279.438 711.167 275.812 707.875C272.229 704.583 270.438 699.333 270.438 692.125L270.5 684.688V664.625H261V648.438H270.5L270.875 627.75L294.562 627.375V648.438H307.25ZM357.625 689.188L380.875 690.75C379.5 697 375.979 702.333 370.312 706.75C364.688 711.125 357.062 713.312 347.438 713.312C336.729 713.312 328.188 710.229 321.812 704.062C315.438 697.854 312.25 690.167 312.25 681C312.25 671.5 315.396 663.479 321.688 656.938C327.979 650.396 336.375 647.125 346.875 647.125C357.042 647.125 365.25 650.208 371.5 656.375C377.792 662.542 380.938 670.938 380.938 681.562C380.938 682.438 380.917 683.646 380.875 685.188H338.312C338.396 689.188 339.104 692.167 340.438 694.125C341.771 696.042 344.312 697 348.062 697C353.479 697 356.667 694.396 357.625 689.188ZM356 672.688C355.958 668.396 355.083 665.521 353.375 664.062C351.708 662.562 349.625 661.812 347.125 661.812C341.208 661.812 338.25 665.438 338.25 672.688H356ZM452.812 712H429.438V703.562C425.979 710.062 420.271 713.312 412.312 713.312C404.979 713.312 399.021 710.458 394.438 704.75C389.896 699 387.625 690.667 387.625 679.75C387.625 669.542 389.917 661.438 394.5 655.438C399.083 649.438 405.146 646.438 412.688 646.438C418.979 646.438 424.167 648.833 428.25 653.625V626.688H452.812V712ZM428.25 671.125C428.25 665.417 425.896 662.562 421.188 662.562C417.896 662.562 415.729 664.375 414.688 668C413.688 671.625 413.188 676.062 413.188 681.312C413.188 691.604 415.812 696.75 421.062 696.75C423.062 696.75 424.75 695.938 426.125 694.312C427.542 692.688 428.25 690.208 428.25 686.875V671.125ZM490.062 687.312L514.375 682.938C516.417 689.812 521.667 693.25 530.125 693.25C536.708 693.25 540 691.5 540 688C540 686.167 539.229 684.75 537.688 683.75C536.188 682.708 533.479 681.792 529.562 681C514.604 678.125 505 674.375 500.75 669.75C496.5 665.125 494.375 659.688 494.375 653.438C494.375 645.396 497.417 638.708 503.5 633.375C509.625 628.042 518.417 625.375 529.875 625.375C547.25 625.375 558.729 632.354 564.312 646.312L542.625 652.875C540.375 647.167 535.812 644.312 528.938 644.312C523.229 644.312 520.375 646.083 520.375 649.625C520.375 651.208 521.021 652.438 522.312 653.312C523.604 654.188 526.104 655.021 529.812 655.812C540.021 657.979 547.271 659.896 551.562 661.562C555.854 663.229 559.438 666.083 562.312 670.125C565.188 674.125 566.625 678.854 566.625 684.312C566.625 692.938 563.125 699.938 556.125 705.312C549.125 710.646 539.938 713.312 528.562 713.312C507.771 713.312 494.938 704.646 490.062 687.312ZM615 648.438V664.625H602.312V688.062C602.312 691.271 602.917 693.188 604.125 693.812C605.333 694.396 606.583 694.688 607.875 694.688C609.875 694.688 612.25 694.333 615 693.625V711.375C610.083 712.333 605.25 712.812 600.5 712.812C592.833 712.812 587.188 711.167 583.562 707.875C579.979 704.583 578.188 699.333 578.188 692.125L578.25 684.688V664.625H568.75V648.438H578.25L578.625 627.75L602.312 627.375V648.438H615ZM685.188 648.438V712H662.125V701.562C658.75 709.396 652.167 713.312 642.375 713.312C636.333 713.312 631.646 711.646 628.312 708.312C625.021 704.938 623.375 700.125 623.375 693.875V648.438H648.312V688.438C648.312 690.938 648.646 692.708 649.312 693.75C650.021 694.75 651.375 695.25 653.375 695.25C655.5 695.25 657.229 694.5 658.562 693C659.896 691.458 660.562 689.312 660.562 686.562V648.438H685.188ZM760.438 712H737.062V703.562C733.604 710.062 727.896 713.312 719.938 713.312C712.604 713.312 706.646 710.458 702.062 704.75C697.521 699 695.25 690.667 695.25 679.75C695.25 669.542 697.542 661.438 702.125 655.438C706.708 649.438 712.771 646.438 720.312 646.438C726.604 646.438 731.792 648.833 735.875 653.625V626.688H760.438V712ZM735.875 671.125C735.875 665.417 733.521 662.562 728.812 662.562C725.521 662.562 723.354 664.375 722.312 668C721.312 671.625 720.812 676.062 720.812 681.312C720.812 691.604 723.438 696.75 728.688 696.75C730.688 696.75 732.375 695.938 733.75 694.312C735.167 692.688 735.875 690.208 735.875 686.875V671.125ZM798.562 624V643.75H773.625V624H798.562ZM798.562 648.438V712H773.625V648.438H798.562ZM842.812 713.312C832.271 713.312 823.896 710.042 817.688 703.5C811.479 696.917 808.375 689.208 808.375 680.375C808.375 670.875 811.604 662.958 818.062 656.625C824.562 650.292 833 647.125 843.375 647.125C853.833 647.125 862.229 650.25 868.562 656.5C874.938 662.75 878.125 670.583 878.125 680C878.125 689.5 874.896 697.438 868.438 703.812C862.021 710.146 853.479 713.312 842.812 713.312ZM843.188 698.188C847.062 698.188 849.417 696.188 850.25 692.188C851.125 688.146 851.562 683.938 851.562 679.562C851.562 673.604 850.958 669.312 849.75 666.688C848.542 664.062 846.375 662.75 843.25 662.75C840.375 662.75 838.271 664.104 836.938 666.812C835.604 669.521 834.938 673.979 834.938 680.188C834.938 687.479 835.625 692.312 837 694.688C838.375 697.021 840.438 698.188 843.188 698.188ZM882.25 694L901.938 691.312C903.062 695.896 907.521 698.188 915.312 698.188C921.771 698.188 925 696.938 925 694.438C925 693.354 924.375 692.521 923.125 691.938C921.875 691.312 918.917 690.688 914.25 690.062C901.333 688.271 893.271 685.479 890.062 681.688C886.854 677.854 885.25 673.604 885.25 668.938C885.25 662.438 887.958 657.188 893.375 653.188C898.792 649.146 905.896 647.125 914.688 647.125C930.104 647.125 939.938 652.688 944.188 663.812L925.312 667.375C923.562 663.625 919.875 661.75 914.25 661.75C911.583 661.75 909.583 662.125 908.25 662.875C906.958 663.583 906.312 664.292 906.312 665C906.312 667.083 908.312 668.354 912.312 668.812C922.729 669.979 929.792 671.167 933.5 672.375C937.208 673.583 940.375 675.792 943 679C945.625 682.208 946.938 686.083 946.938 690.625C946.938 697.583 944.021 703.104 938.188 707.188C932.396 711.271 924.396 713.312 914.188 713.312C896.979 713.312 886.333 706.875 882.25 694Z" fill="white"/>
<path d="M361.562 771.688V857H335.375V823.812H315.375V857H289.188V771.688H315.375V803.062H335.375V771.688H361.562ZM417.562 834.188L440.812 835.75C439.438 842 435.917 847.333 430.25 851.75C424.625 856.125 417 858.312 407.375 858.312C396.667 858.312 388.125 855.229 381.75 849.062C375.375 842.854 372.188 835.167 372.188 826C372.188 816.5 375.333 808.479 381.625 801.938C387.917 795.396 396.312 792.125 406.812 792.125C416.979 792.125 425.188 795.208 431.438 801.375C437.729 807.542 440.875 815.938 440.875 826.562C440.875 827.438 440.854 828.646 440.812 830.188H398.25C398.333 834.188 399.042 837.167 400.375 839.125C401.708 841.042 404.25 842 408 842C413.417 842 416.604 839.396 417.562 834.188ZM415.938 817.688C415.896 813.396 415.021 810.521 413.312 809.062C411.646 807.562 409.562 806.812 407.062 806.812C401.146 806.812 398.188 810.438 398.188 817.688H415.938ZM514.75 857H491C490.417 854.292 490.125 851.333 490.125 848.125C485.625 854.917 478.812 858.312 469.688 858.312C462.188 858.312 456.562 856.396 452.812 852.562C449.104 848.729 447.25 844.333 447.25 839.375C447.25 832.667 450.292 827.25 456.375 823.125C462.5 818.958 473.333 816.458 488.875 815.625V814.188C488.875 811.396 488.229 809.542 486.938 808.625C485.688 807.708 483.833 807.25 481.375 807.25C475.625 807.25 472.417 809.562 471.75 814.188L449 812.062C452.25 798.771 463.312 792.125 482.188 792.125C487.312 792.125 492.021 792.646 496.312 793.688C500.604 794.688 504 796.271 506.5 798.438C509 800.604 510.667 802.896 511.5 805.312C512.375 807.729 512.812 812.375 512.812 819.25V844.625C512.812 849.458 513.458 853.583 514.75 857ZM488.875 827.25C478.25 828.375 472.938 831.771 472.938 837.438C472.938 841.271 475.042 843.188 479.25 843.188C481.917 843.188 484.188 842.396 486.062 840.812C487.938 839.229 488.875 835.729 488.875 830.312V827.25ZM550.375 771.688V857H525.812V771.688H550.375ZM602.812 793.438V809.625H590.125V833.062C590.125 836.271 590.729 838.188 591.938 838.812C593.146 839.396 594.396 839.688 595.688 839.688C597.688 839.688 600.062 839.333 602.812 838.625V856.375C597.896 857.333 593.062 857.812 588.312 857.812C580.646 857.812 575 856.167 571.375 852.875C567.792 849.583 566 844.333 566 837.125L566.062 829.688V809.625H556.562V793.438H566.062L566.438 772.75L590.125 772.375V793.438H602.812ZM673.625 857H648.75V818.75C648.75 815.25 648.354 812.854 647.562 811.562C646.812 810.229 645.333 809.562 643.125 809.562C641.417 809.562 639.917 810.083 638.625 811.125C637.375 812.125 636.646 813.167 636.438 814.25C636.229 815.333 636.125 817.604 636.125 821.062V857H611.188V771.688H636.125V800.938C640.625 795.062 646.5 792.125 653.75 792.125C657.417 792.125 660.625 792.771 663.375 794.062C666.167 795.312 668.312 796.938 669.812 798.938C671.312 800.938 672.312 802.875 672.812 804.75C673.354 806.625 673.625 810.25 673.625 815.625V857Z" fill="#60FF8A"/>
<defs>
<filter id="filter0_d_348_653" x="157" y="37" width="605" height="553" filterUnits="userSpaceOnUse" color-interpolation-filters="sRGB">
<feFlood flood-opacity="0" result="BackgroundImageFix"/>
<feColorMatrix in="SourceAlpha" type="matrix" values="0 0 0 0 0 0 0 0 0 0 0 0 0 0 0 0 0 0 127 0" result="hardAlpha"/>
<feOffset dy="4"/>
<feGaussianBlur stdDeviation="2"/>
<feComposite in2="hardAlpha" operator="out"/>
<feColorMatrix type="matrix" values="0 0 0 0 1 0 0 0 0 1 0 0 0 0 1 0 0 0 1 0"/>
<feBlend mode="normal" in2="BackgroundImageFix" result="effect1_dropShadow_348_653"/>
<feBlend mode="normal" in="SourceGraphic" in2="effect1_dropShadow_348_653" result="shape"/>
</filter>
<filter id="filter1_i_348_653" x="250.136" y="202.3" width="215.041" height="219.043" filterUnits="userSpaceOnUse" color-interpolation-filters="sRGB">
<feFlood flood-opacity="0" result="BackgroundImageFix"/>
<feBlend mode="normal" in="SourceGraphic" in2="BackgroundImageFix" result="shape"/>
<feColorMatrix in="SourceAlpha" type="matrix" values="0 0 0 0 0 0 0 0 0 0 0 0 0 0 0 0 0 0 127 0" result="hardAlpha"/>
<feOffset dy="4"/>
<feGaussianBlur stdDeviation="2"/>
<feComposite in2="hardAlpha" operator="arithmetic" k2="-1" k3="1"/>
<feColorMatrix type="matrix" values="0 0 0 0 1 0 0 0 0 1 0 0 0 0 1 0 0 0 0.25 0"/>
<feBlend mode="normal" in2="shape" result="effect1_innerShadow_348_653"/>
</filter>
<filter id="filter2_di_348_653" x="450.822" y="194.658" width="223.043" height="225.041" filterUnits="userSpaceOnUse" color-interpolation-filters="sRGB">
<feFlood flood-opacity="0" result="BackgroundImageFix"/>
<feColorMatrix in="SourceAlpha" type="matrix" values="0 0 0 0 0 0 0 0 0 0 0 0 0 0 0 0 0 0 127 0" result="hardAlpha"/>
<feOffset dx="2" dy="-2"/>
<feGaussianBlur stdDeviation="2"/>
<feComposite in2="hardAlpha" operator="out"/>
<feColorMatrix type="matrix" values="0 0 0 0 0 0 0 0 0 0 0 0 0 0 0 0 0 0 0.25 0"/>
<feBlend mode="normal" in2="BackgroundImageFix" result="effect1_dropShadow_348_653"/>
<feBlend mode="normal" in="SourceGraphic" in2="effect1_dropShadow_348_653" result="shape"/>
<feColorMatrix in="SourceAlpha" type="matrix" values="0 0 0 0 0 0 0 0 0 0 0 0 0 0 0 0 0 0 127 0" result="hardAlpha"/>
<feOffset dy="4"/>
<feGaussianBlur stdDeviation="2"/>
<feComposite in2="hardAlpha" operator="arithmetic" k2="-1" k3="1"/>
<feColorMatrix type="matrix" values="0 0 0 0 1 0 0 0 0 1 0 0 0 0 1 0 0 0 0.25 0"/>
<feBlend mode="normal" in2="shape" result="effect2_innerShadow_348_653"/>
</filter>
<filter id="filter3_di_348_653" x="344.658" y="299.821" width="223.041" height="223.043" filterUnits="userSpaceOnUse" color-interpolation-filters="sRGB">
<feFlood flood-opacity="0" result="BackgroundImageFix"/>
<feColorMatrix in="SourceAlpha" type="matrix" values="0 0 0 0 0 0 0 0 0 0 0 0 0 0 0 0 0 0 127 0" result="hardAlpha"/>
<feOffset dx="-2" dy="1"/>
<feGaussianBlur stdDeviation="2"/>
<feComposite in2="hardAlpha" operator="out"/>
<feColorMatrix type="matrix" values="0 0 0 0 0 0 0 0 0 0 0 0 0 0 0 0 0 0 0.25 0"/>
<feBlend mode="normal" in2="BackgroundImageFix" result="effect1_dropShadow_348_653"/>
<feBlend mode="normal" in="SourceGraphic" in2="effect1_dropShadow_348_653" result="shape"/>
<feColorMatrix in="SourceAlpha" type="matrix" values="0 0 0 0 0 0 0 0 0 0 0 0 0 0 0 0 0 0 127 0" result="hardAlpha"/>
<feOffset dy="4"/>
<feGaussianBlur stdDeviation="2.45"/>
<feComposite in2="hardAlpha" operator="arithmetic" k2="-1" k3="1"/>
<feColorMatrix type="matrix" values="0 0 0 0 1 0 0 0 0 1 0 0 0 0 1 0 0 0 0.14 0"/>
<feBlend mode="normal" in2="shape" result="effect2_innerShadow_348_653"/>
</filter>
<filter id="filter4_di_348_653" x="350.3" y="94.1361" width="223.043" height="225.041" filterUnits="userSpaceOnUse" color-interpolation-filters="sRGB">
<feFlood flood-opacity="0" result="BackgroundImageFix"/>
<feColorMatrix in="SourceAlpha" type="matrix" values="0 0 0 0 0 0 0 0 0 0 0 0 0 0 0 0 0 0 127 0" result="hardAlpha"/>
<feOffset dx="2" dy="-2"/>
<feGaussianBlur stdDeviation="2"/>
<feComposite in2="hardAlpha" operator="out"/>
<feColorMatrix type="matrix" values="0 0 0 0 0 0 0 0 0 0 0 0 0 0 0 0 0 0 0.25 0"/>
<feBlend mode="normal" in2="BackgroundImageFix" result="effect1_dropShadow_348_653"/>
<feBlend mode="normal" in="SourceGraphic" in2="effect1_dropShadow_348_653" result="shape"/>
<feColorMatrix in="SourceAlpha" type="matrix" values="0 0 0 0 0 0 0 0 0 0 0 0 0 0 0 0 0 0 127 0" result="hardAlpha"/>
<feOffset dy="4"/>
<feGaussianBlur stdDeviation="2"/>
<feComposite in2="hardAlpha" operator="arithmetic" k2="-1" k3="1"/>
<feColorMatrix type="matrix" values="0 0 0 0 1 0 0 0 0 1 0 0 0 0 1 0 0 0 0.25 0"/>
<feBlend mode="normal" in2="shape" result="effect2_innerShadow_348_653"/>
</filter>
<filter id="filter5_d_348_653" x="360.15" y="200.925" width="201.701" height="257.044" filterUnits="userSpaceOnUse" color-interpolation-filters="sRGB">
<feFlood flood-opacity="0" result="BackgroundImageFix"/>
<feColorMatrix in="SourceAlpha" type="matrix" values="0 0 0 0 0 0 0 0 0 0 0 0 0 0 0 0 0 0 127 0" result="hardAlpha"/>
<feOffset dx="2" dy="2"/>
<feGaussianBlur stdDeviation="2"/>
<feComposite in2="hardAlpha" operator="out"/>
<feColorMatrix type="matrix" values="0 0 0 0 0 0 0 0 0 0 0 0 0 0 0 0 0 0 0.25 0"/>
<feBlend mode="normal" in2="BackgroundImageFix" result="effect1_dropShadow_348_653"/>
<feBlend mode="normal" in="SourceGraphic" in2="effect1_dropShadow_348_653" result="shape"/>
</filter>
<linearGradient id="paint0_linear_348_653" x1="-101.022" y1="49.6748" x2="316.394" y2="166.181" gradientUnits="userSpaceOnUse">
<stop offset="0.243513" stop-color="#7DBE2C"/>
<stop offset="1" stop-color="#60FF8A"/>
</linearGradient>
<linearGradient id="paint1_linear_348_653" x1="-100.206" y1="50.0792" x2="314.797" y2="164.049" gradientUnits="userSpaceOnUse">
<stop offset="0.243513" stop-color="#7DBE2C"/>
<stop offset="1" stop-color="#60FF8A"/>
</linearGradient>
<linearGradient id="paint2_linear_348_653" x1="-100.206" y1="50.0792" x2="314.797" y2="164.049" gradientUnits="userSpaceOnUse">
<stop offset="0.243513" stop-color="#7DBE2C"/>
<stop offset="1" stop-color="#60FF8A"/>
</linearGradient>
<linearGradient id="paint3_linear_348_653" x1="-101.022" y1="49.6748" x2="316.394" y2="166.181" gradientUnits="userSpaceOnUse">
<stop offset="0.243513" stop-color="#7DBE2C"/>
<stop offset="1" stop-color="#60FF8A"/>
</linearGradient>
</defs>
</svg>
