<svg width="962" height="798" viewBox="0 0 962 798" fill="none" xmlns="http://www.w3.org/2000/svg">
<rect x="184" y="37" width="597" height="545" rx="85" fill="black"/>
<g filter="url(#filter0_i_348_685)">
<ellipse cx="107.929" cy="107.058" rx="107.929" ry="107.058" transform="matrix(0.964092 -0.265567 0.252004 0.967726 249.624 234.881)" fill="url(#paint0_linear_348_685)"/>
</g>
<g filter="url(#filter1_di_348_685)">
<ellipse cx="107.058" cy="107.929" rx="107.058" ry="107.929" transform="matrix(-0.967726 -0.252004 -0.265567 0.964093 715.608 231.103)" fill="url(#paint1_linear_348_685)"/>
</g>
<g filter="url(#filter2_di_348_685)">
<ellipse cx="107.058" cy="107.929" rx="107.058" ry="107.929" transform="matrix(-0.252004 -0.967726 0.964093 -0.265567 404.103 542.608)" fill="url(#paint2_linear_348_685)"/>
</g>
<g filter="url(#filter3_di_348_685)">
<ellipse cx="107.929" cy="107.058" rx="107.929" ry="107.058" transform="matrix(-0.265567 0.964093 0.967726 0.252004 407.881 76.6239)" fill="url(#paint3_linear_348_685)"/>
</g>
<g filter="url(#filter4_d_348_685)">
<path d="M450.217 258.768H513.784V436.97C513.784 444.978 507.292 451.47 499.284 451.47H464.717C456.709 451.47 450.217 444.978 450.217 436.97V258.768Z" fill="white" stroke="white"/>
<rect x="385.65" y="203.425" width="192.701" height="54.3432" rx="14.5" fill="white" stroke="white"/>
<path d="M511.3 271.442C511.3 260.373 516.373 255.3 527.442 255.3" stroke="white" stroke-width="6"/>
<path d="M452.7 271.442C452.7 260.373 447.627 255.3 436.558 255.3" stroke="white" stroke-width="6"/>
</g>
<path d="M42.5 705.125V770H17.6875V705.125H0V684.688H60.1875V705.125H42.5ZM86.6875 770H62.8125V706.438H83.5625V719.562C85.9375 710.021 91.4583 705.25 100.125 705.25C101 705.25 102.208 705.333 103.75 705.5V727.688C102 727.271 100.438 727.062 99.0625 727.062C90.8125 727.062 86.6875 731.667 86.6875 740.875V770ZM173.5 706.438V770H150.438V759.562C147.062 767.396 140.479 771.312 130.688 771.312C124.646 771.312 119.958 769.646 116.625 766.312C113.333 762.938 111.688 758.125 111.688 751.875V706.438H136.625V746.438C136.625 748.938 136.958 750.708 137.625 751.75C138.333 752.75 139.688 753.25 141.688 753.25C143.812 753.25 145.542 752.5 146.875 751C148.208 749.458 148.875 747.312 148.875 744.562V706.438H173.5ZM181.062 752L200.75 749.312C201.875 753.896 206.333 756.188 214.125 756.188C220.583 756.188 223.812 754.938 223.812 752.438C223.812 751.354 223.188 750.521 221.938 749.938C220.688 749.312 217.729 748.688 213.062 748.062C200.146 746.271 192.083 743.479 188.875 739.688C185.667 735.854 184.062 731.604 184.062 726.938C184.062 720.438 186.771 715.188 192.188 711.188C197.604 707.146 204.708 705.125 213.5 705.125C228.917 705.125 238.75 710.688 243 721.812L224.125 725.375C222.375 721.625 218.688 719.75 213.062 719.75C210.396 719.75 208.396 720.125 207.062 720.875C205.771 721.583 205.125 722.292 205.125 723C205.125 725.083 207.125 726.354 211.125 726.812C221.542 727.979 228.604 729.167 232.312 730.375C236.021 731.583 239.188 733.792 241.812 737C244.438 740.208 245.75 744.083 245.75 748.625C245.75 755.583 242.833 761.104 237 765.188C231.208 769.271 223.208 771.312 213 771.312C195.792 771.312 185.146 764.875 181.062 752ZM294.438 706.438V722.625H281.75V746.062C281.75 749.271 282.354 751.188 283.562 751.812C284.771 752.396 286.021 752.688 287.312 752.688C289.312 752.688 291.688 752.333 294.438 751.625V769.375C289.521 770.333 284.688 770.812 279.938 770.812C272.271 770.812 266.625 769.167 263 765.875C259.417 762.583 257.625 757.333 257.625 750.125L257.688 742.688V722.625H248.188V706.438H257.688L258.062 685.75L281.75 685.375V706.438H294.438ZM344.812 747.188L368.062 748.75C366.688 755 363.167 760.333 357.5 764.75C351.875 769.125 344.25 771.312 334.625 771.312C323.917 771.312 315.375 768.229 309 762.062C302.625 755.854 299.438 748.167 299.438 739C299.438 729.5 302.583 721.479 308.875 714.938C315.167 708.396 323.562 705.125 334.062 705.125C344.229 705.125 352.438 708.208 358.688 714.375C364.979 720.542 368.125 728.938 368.125 739.562C368.125 740.438 368.104 741.646 368.062 743.188H325.5C325.583 747.188 326.292 750.167 327.625 752.125C328.958 754.042 331.5 755 335.25 755C340.667 755 343.854 752.396 344.812 747.188ZM343.188 730.688C343.146 726.396 342.271 723.521 340.562 722.062C338.896 720.562 336.812 719.812 334.312 719.812C328.396 719.812 325.438 723.438 325.438 730.688H343.188ZM440 770H416.625V761.562C413.167 768.062 407.458 771.312 399.5 771.312C392.167 771.312 386.208 768.458 381.625 762.75C377.083 757 374.812 748.667 374.812 737.75C374.812 727.542 377.104 719.438 381.688 713.438C386.271 707.438 392.333 704.438 399.875 704.438C406.167 704.438 411.354 706.833 415.438 711.625V684.688H440V770ZM415.438 729.125C415.438 723.417 413.083 720.562 408.375 720.562C405.083 720.562 402.917 722.375 401.875 726C400.875 729.625 400.375 734.062 400.375 739.312C400.375 749.604 403 754.75 408.25 754.75C410.25 754.75 411.938 753.938 413.312 752.312C414.729 750.688 415.438 748.208 415.438 744.875V729.125ZM477.25 745.312L501.562 740.938C503.604 747.812 508.854 751.25 517.312 751.25C523.896 751.25 527.188 749.5 527.188 746C527.188 744.167 526.417 742.75 524.875 741.75C523.375 740.708 520.667 739.792 516.75 739C501.792 736.125 492.188 732.375 487.938 727.75C483.688 723.125 481.562 717.688 481.562 711.438C481.562 703.396 484.604 696.708 490.688 691.375C496.812 686.042 505.604 683.375 517.062 683.375C534.438 683.375 545.917 690.354 551.5 704.312L529.812 710.875C527.562 705.167 523 702.312 516.125 702.312C510.417 702.312 507.562 704.083 507.562 707.625C507.562 709.208 508.208 710.438 509.5 711.312C510.792 712.188 513.292 713.021 517 713.812C527.208 715.979 534.458 717.896 538.75 719.562C543.042 721.229 546.625 724.083 549.5 728.125C552.375 732.125 553.812 736.854 553.812 742.312C553.812 750.938 550.312 757.938 543.312 763.312C536.312 768.646 527.125 771.312 515.75 771.312C494.958 771.312 482.125 762.646 477.25 745.312ZM602.188 706.438V722.625H589.5V746.062C589.5 749.271 590.104 751.188 591.312 751.812C592.521 752.396 593.771 752.688 595.062 752.688C597.062 752.688 599.438 752.333 602.188 751.625V769.375C597.271 770.333 592.438 770.812 587.688 770.812C580.021 770.812 574.375 769.167 570.75 765.875C567.167 762.583 565.375 757.333 565.375 750.125L565.438 742.688V722.625H555.938V706.438H565.438L565.812 685.75L589.5 685.375V706.438H602.188ZM672.375 706.438V770H649.312V759.562C645.938 767.396 639.354 771.312 629.562 771.312C623.521 771.312 618.833 769.646 615.5 766.312C612.208 762.938 610.562 758.125 610.562 751.875V706.438H635.5V746.438C635.5 748.938 635.833 750.708 636.5 751.75C637.208 752.75 638.562 753.25 640.562 753.25C642.688 753.25 644.417 752.5 645.75 751C647.083 749.458 647.75 747.312 647.75 744.562V706.438H672.375ZM747.625 770H724.25V761.562C720.792 768.062 715.083 771.312 707.125 771.312C699.792 771.312 693.833 768.458 689.25 762.75C684.708 757 682.438 748.667 682.438 737.75C682.438 727.542 684.729 719.438 689.312 713.438C693.896 707.438 699.958 704.438 707.5 704.438C713.792 704.438 718.979 706.833 723.062 711.625V684.688H747.625V770ZM723.062 729.125C723.062 723.417 720.708 720.562 716 720.562C712.708 720.562 710.542 722.375 709.5 726C708.5 729.625 708 734.062 708 739.312C708 749.604 710.625 754.75 715.875 754.75C717.875 754.75 719.562 753.938 720.938 752.312C722.354 750.688 723.062 748.208 723.062 744.875V729.125ZM785.75 682V701.75H760.812V682H785.75ZM785.75 706.438V770H760.812V706.438H785.75ZM830 771.312C819.458 771.312 811.083 768.042 804.875 761.5C798.667 754.917 795.562 747.208 795.562 738.375C795.562 728.875 798.792 720.958 805.25 714.625C811.75 708.292 820.188 705.125 830.562 705.125C841.021 705.125 849.417 708.25 855.75 714.5C862.125 720.75 865.312 728.583 865.312 738C865.312 747.5 862.083 755.438 855.625 761.812C849.208 768.146 840.667 771.312 830 771.312ZM830.375 756.188C834.25 756.188 836.604 754.188 837.438 750.188C838.312 746.146 838.75 741.938 838.75 737.562C838.75 731.604 838.146 727.312 836.938 724.688C835.729 722.062 833.562 720.75 830.438 720.75C827.562 720.75 825.458 722.104 824.125 724.812C822.792 727.521 822.125 731.979 822.125 738.188C822.125 745.479 822.812 750.312 824.188 752.688C825.562 755.021 827.625 756.188 830.375 756.188ZM869.438 752L889.125 749.312C890.25 753.896 894.708 756.188 902.5 756.188C908.958 756.188 912.188 754.938 912.188 752.438C912.188 751.354 911.562 750.521 910.312 749.938C909.062 749.312 906.104 748.688 901.438 748.062C888.521 746.271 880.458 743.479 877.25 739.688C874.042 735.854 872.438 731.604 872.438 726.938C872.438 720.438 875.146 715.188 880.562 711.188C885.979 707.146 893.083 705.125 901.875 705.125C917.292 705.125 927.125 710.688 931.375 721.812L912.5 725.375C910.75 721.625 907.062 719.75 901.438 719.75C898.771 719.75 896.771 720.125 895.438 720.875C894.146 721.583 893.5 722.292 893.5 723C893.5 725.083 895.5 726.354 899.5 726.812C909.917 727.979 916.979 729.167 920.688 730.375C924.396 731.583 927.562 733.792 930.188 737C932.812 740.208 934.125 744.083 934.125 748.625C934.125 755.583 931.208 761.104 925.375 765.188C919.583 769.271 911.583 771.312 901.375 771.312C884.167 771.312 873.521 764.875 869.438 752Z" fill="white"/>
<defs>
<filter id="filter0_i_348_685" x="273.136" y="202.3" width="215.041" height="219.043" filterUnits="userSpaceOnUse" color-interpolation-filters="sRGB">
<feFlood flood-opacity="0" result="BackgroundImageFix"/>
<feBlend mode="normal" in="SourceGraphic" in2="BackgroundImageFix" result="shape"/>
<feColorMatrix in="SourceAlpha" type="matrix" values="0 0 0 0 0 0 0 0 0 0 0 0 0 0 0 0 0 0 127 0" result="hardAlpha"/>
<feOffset dy="4"/>
<feGaussianBlur stdDeviation="2"/>
<feComposite in2="hardAlpha" operator="arithmetic" k2="-1" k3="1"/>
<feColorMatrix type="matrix" values="0 0 0 0 1 0 0 0 0 1 0 0 0 0 1 0 0 0 0.25 0"/>
<feBlend mode="normal" in2="shape" result="effect1_innerShadow_348_685"/>
</filter>
<filter id="filter1_di_348_685" x="473.822" y="194.658" width="223.043" height="225.041" filterUnits="userSpaceOnUse" color-interpolation-filters="sRGB">
<feFlood flood-opacity="0" result="BackgroundImageFix"/>
<feColorMatrix in="SourceAlpha" type="matrix" values="0 0 0 0 0 0 0 0 0 0 0 0 0 0 0 0 0 0 127 0" result="hardAlpha"/>
<feOffset dx="2" dy="-2"/>
<feGaussianBlur stdDeviation="2"/>
<feComposite in2="hardAlpha" operator="out"/>
<feColorMatrix type="matrix" values="0 0 0 0 0 0 0 0 0 0 0 0 0 0 0 0 0 0 0.25 0"/>
<feBlend mode="normal" in2="BackgroundImageFix" result="effect1_dropShadow_348_685"/>
<feBlend mode="normal" in="SourceGraphic" in2="effect1_dropShadow_348_685" result="shape"/>
<feColorMatrix in="SourceAlpha" type="matrix" values="0 0 0 0 0 0 0 0 0 0 0 0 0 0 0 0 0 0 127 0" result="hardAlpha"/>
<feOffset dy="4"/>
<feGaussianBlur stdDeviation="2"/>
<feComposite in2="hardAlpha" operator="arithmetic" k2="-1" k3="1"/>
<feColorMatrix type="matrix" values="0 0 0 0 1 0 0 0 0 1 0 0 0 0 1 0 0 0 0.25 0"/>
<feBlend mode="normal" in2="shape" result="effect2_innerShadow_348_685"/>
</filter>
<filter id="filter2_di_348_685" x="367.658" y="299.821" width="223.041" height="223.043" filterUnits="userSpaceOnUse" color-interpolation-filters="sRGB">
<feFlood flood-opacity="0" result="BackgroundImageFix"/>
<feColorMatrix in="SourceAlpha" type="matrix" values="0 0 0 0 0 0 0 0 0 0 0 0 0 0 0 0 0 0 127 0" result="hardAlpha"/>
<feOffset dx="-2" dy="1"/>
<feGaussianBlur stdDeviation="2"/>
<feComposite in2="hardAlpha" operator="out"/>
<feColorMatrix type="matrix" values="0 0 0 0 0 0 0 0 0 0 0 0 0 0 0 0 0 0 0.25 0"/>
<feBlend mode="normal" in2="BackgroundImageFix" result="effect1_dropShadow_348_685"/>
<feBlend mode="normal" in="SourceGraphic" in2="effect1_dropShadow_348_685" result="shape"/>
<feColorMatrix in="SourceAlpha" type="matrix" values="0 0 0 0 0 0 0 0 0 0 0 0 0 0 0 0 0 0 127 0" result="hardAlpha"/>
<feOffset dy="4"/>
<feGaussianBlur stdDeviation="2.45"/>
<feComposite in2="hardAlpha" operator="arithmetic" k2="-1" k3="1"/>
<feColorMatrix type="matrix" values="0 0 0 0 1 0 0 0 0 1 0 0 0 0 1 0 0 0 0.14 0"/>
<feBlend mode="normal" in2="shape" result="effect2_innerShadow_348_685"/>
</filter>
<filter id="filter3_di_348_685" x="373.3" y="94.1361" width="223.043" height="225.041" filterUnits="userSpaceOnUse" color-interpolation-filters="sRGB">
<feFlood flood-opacity="0" result="BackgroundImageFix"/>
<feColorMatrix in="SourceAlpha" type="matrix" values="0 0 0 0 0 0 0 0 0 0 0 0 0 0 0 0 0 0 127 0" result="hardAlpha"/>
<feOffset dx="2" dy="-2"/>
<feGaussianBlur stdDeviation="2"/>
<feComposite in2="hardAlpha" operator="out"/>
<feColorMatrix type="matrix" values="0 0 0 0 0 0 0 0 0 0 0 0 0 0 0 0 0 0 0.25 0"/>
<feBlend mode="normal" in2="BackgroundImageFix" result="effect1_dropShadow_348_685"/>
<feBlend mode="normal" in="SourceGraphic" in2="effect1_dropShadow_348_685" result="shape"/>
<feColorMatrix in="SourceAlpha" type="matrix" values="0 0 0 0 0 0 0 0 0 0 0 0 0 0 0 0 0 0 127 0" result="hardAlpha"/>
<feOffset dy="4"/>
<feGaussianBlur stdDeviation="2"/>
<feComposite in2="hardAlpha" operator="arithmetic" k2="-1" k3="1"/>
<feColorMatrix type="matrix" values="0 0 0 0 1 0 0 0 0 1 0 0 0 0 1 0 0 0 0.25 0"/>
<feBlend mode="normal" in2="shape" result="effect2_innerShadow_348_685"/>
</filter>
<filter id="filter4_d_348_685" x="383.15" y="200.925" width="201.701" height="257.044" filterUnits="userSpaceOnUse" color-interpolation-filters="sRGB">
<feFlood flood-opacity="0" result="BackgroundImageFix"/>
<feColorMatrix in="SourceAlpha" type="matrix" values="0 0 0 0 0 0 0 0 0 0 0 0 0 0 0 0 0 0 127 0" result="hardAlpha"/>
<feOffset dx="2" dy="2"/>
<feGaussianBlur stdDeviation="2"/>
<feComposite in2="hardAlpha" operator="out"/>
<feColorMatrix type="matrix" values="0 0 0 0 0 0 0 0 0 0 0 0 0 0 0 0 0 0 0.25 0"/>
<feBlend mode="normal" in2="BackgroundImageFix" result="effect1_dropShadow_348_685"/>
<feBlend mode="normal" in="SourceGraphic" in2="effect1_dropShadow_348_685" result="shape"/>
</filter>
<linearGradient id="paint0_linear_348_685" x1="-101.022" y1="49.6748" x2="316.394" y2="166.181" gradientUnits="userSpaceOnUse">
<stop offset="0.243513" stop-color="#7A2CBE"/>
<stop offset="1" stop-color="#608DFF"/>
</linearGradient>
<linearGradient id="paint1_linear_348_685" x1="-100.206" y1="50.0792" x2="314.797" y2="164.049" gradientUnits="userSpaceOnUse">
<stop offset="0.243513" stop-color="#7A2CBE"/>
<stop offset="1" stop-color="#608DFF"/>
</linearGradient>
<linearGradient id="paint2_linear_348_685" x1="-100.206" y1="50.0792" x2="314.797" y2="164.049" gradientUnits="userSpaceOnUse">
<stop offset="0.243513" stop-color="#7A2CBE"/>
<stop offset="1" stop-color="#608DFF"/>
</linearGradient>
<linearGradient id="paint3_linear_348_685" x1="-101.022" y1="49.6748" x2="316.394" y2="166.181" gradientUnits="userSpaceOnUse">
<stop offset="0.243513" stop-color="#7A2CBE"/>
<stop offset="1" stop-color="#608DFF"/>
</linearGradient>
</defs>
</svg>
